<svg xmlns="http://www.w3.org/2000/svg" id="Layer_1" x="0" y="0" enable-background="new 0 0 16 16" version="1.1" viewBox="0 0 16 16" xml:space="preserve"><path id="path7" fill="#231f20" stroke="none" d="M 2.9101562,1.5 C 2.4081563,1.5 2,1.9081562 2,2.4101562 L 2,5.0898438 C 2,5.3518437 2.1149688,5.584 2.2929688,5.75 2.1149688,5.916 2,6.1481563 2,6.4101562 L 2,9.0898438 C 2,9.3518438 2.1149688,9.584 2.2929688,9.75 2.1149688,9.916 2,10.148156 2,10.410156 l 0,2.679688 C 2,13.591844 2.4081562,14 2.9101562,14 L 14.589844,14 C 15.091844,14 15.5,13.591844 15.5,13.089844 l 0,-2.679688 C 15.5,10.148156 15.385031,9.916 15.207031,9.75 15.385031,9.584 15.5,9.3518437 15.5,9.0898438 l 0,-2.6796876 C 15.5,6.1481562 15.385031,5.916 15.207031,5.75 15.385031,5.584 15.5,5.3518437 15.5,5.0898438 l 0,-2.6796876 C 15.5,1.9081562 15.091844,1.5 14.589844,1.5 l -11.6796878,0 z m 0,0.5 11.6796878,0 C 14.816844,2 15,2.1841562 15,2.4101562 l 0,2.6796876 C 15,5.3168438 14.815844,5.5 14.589844,5.5 L 2.9101562,5.5 C 2.6841563,5.5 2.5,5.3158437 2.5,5.0898438 l 0,-2.6796876 C 2.5,2.1831563 2.6841562,2 2.9101562,2 Z M 13.25,3.4492188 C 13.084,3.4492188 12.949219,3.584 12.949219,3.75 12.949219,3.916 13.084,4.0507813 13.25,4.0507812 13.416,4.0507812 13.550781,3.916 13.550781,3.75 13.550781,3.584 13.416,3.4492188 13.25,3.4492188 Z M 3.75,3.5 l 0,0.5 4,0 0,-0.5 -4,0 z m 9.5,0.050781 C 13.36,3.5507812 13.449219,3.64 13.449219,3.75 13.449219,3.86 13.36,3.9492187 13.25,3.9492188 13.14,3.9492188 13.050781,3.86 13.050781,3.75 13.050781,3.64 13.14,3.5507812 13.25,3.5507812 Z M 2.9101562,6 14.589844,6 C 14.816844,6 15,6.1841563 15,6.4101562 l 0,2.6796876 C 15,9.3168438 14.815844,9.5 14.589844,9.5 L 2.9101562,9.5 C 2.6841563,9.5 2.5,9.3158437 2.5,9.0898438 l 0,-2.6796876 C 2.5,6.1831562 2.6841562,6 2.9101562,6 Z M 13.271484,7.4492188 c -0.166,0 -0.300781,0.1347812 -0.300781,0.3007812 0,0.166 0.134781,0.3007812 0.300781,0.3007812 0.166,0 0.298828,-0.1347812 0.298828,-0.3007812 0,-0.166 -0.133828,-0.3007813 -0.298828,-0.3007812 z M 3.75,7.5 l 0,0.5 4,0 0,-0.5 -4,0 z m 9.521484,0.050781 c 0.111,0 0.199219,0.089219 0.199219,0.1992188 0,0.11 -0.08922,0.1992187 -0.199219,0.1992188 -0.11,0 -0.201172,-0.089219 -0.201172,-0.1992188 0,-0.11 0.09017,-0.1992188 0.201172,-0.1992188 z M 2.9101562,10 14.589844,10 C 14.816844,10 15,10.184156 15,10.410156 l 0,2.679688 C 15,13.316844 14.815844,13.5 14.589844,13.5 l -11.6796878,0 C 2.6831563,13.5 2.5,13.315844 2.5,13.089844 l 0,-2.679688 C 2.5,10.183156 2.6841562,10 2.9101562,10 Z m 10.3339848,1.449219 c -0.166,0 -0.300782,0.134781 -0.300782,0.300781 0,0.166 0.135782,0.300781 0.300782,0.300781 0.166,0 0.300781,-0.134781 0.300781,-0.300781 0,-0.166 -0.134781,-0.300781 -0.300781,-0.300781 z M 3.75,11.5 l 0,0.5 4,0 0,-0.5 -4,0 z m 9.494141,0.05078 c 0.11,0 0.199218,0.08922 0.199218,0.199219 0,0.11 -0.08922,0.199219 -0.199218,0.199219 -0.11,0 -0.199219,-0.08922 -0.199219,-0.199219 0,-0.11 0.08922,-0.199219 0.199219,-0.199219 z"/></svg>