<svg xmlns="http://www.w3.org/2000/svg" xmlns:xlink="http://www.w3.org/1999/xlink" width="32" height="32" viewBox="0 0 32 32"><defs><linearGradient id="a"><stop offset="0" stop-color="#000092"/><stop offset="1" stop-color="#ff00f3"/></linearGradient><linearGradient id="b" x1="2.002" x2="30" y1="16.562" y2="16.562" gradientUnits="userSpaceOnUse" xlink:href="#a"/></defs><path fill="url(#b)" d="M 20.568359 7.125 L 20.568359 7.1269531 C 20.054869 7.1269531 19.541381 7.3199844 19.152344 7.7089844 L 19.126953 7.7324219 L 19.107422 7.7578125 C 18.060735 9.1342125 16.440413 9.899975 14.695312 10.859375 C 13.031569 11.773975 11.292911 12.942947 10.003906 14.998047 L 8.0292969 14.998047 L 8.0292969 14.763672 C 8.0292969 14.351172 7.6801628 14.003906 7.2675781 14.003906 L 2.7636719 14.003906 C 2.3510872 14.003906 2.0019531 14.351172 2.0019531 14.763672 L 2.0019531 25.238281 C 2.0019531 25.650881 2.3510872 25.998047 2.7636719 25.998047 L 7.2675781 25.998047 C 7.6801628 25.998047 8.0292969 25.650881 8.0292969 25.238281 L 8.0292969 24.998047 L 8.8320312 24.998047 C 10.560941 24.998047 12.246194 25.952747 14.005859 25.998047 L 14.013672 25.998047 L 21.255859 25.998047 C 22.355211 25.998047 23.255859 25.097447 23.255859 23.998047 C 23.255859 23.524247 23.026456 23.12505 22.748047 22.78125 C 23.564075 22.52895 24.224609 21.893747 24.224609 20.998047 C 24.224609 20.531647 24.045763 20.113991 23.775391 19.775391 C 24.542656 19.495091 25.162109 18.889997 25.162109 18.029297 C 25.162109 17.663197 24.989109 17.357847 24.816406 17.060547 L 29.740234 17.060547 C 30.839586 17.060547 31.740234 16.159947 31.740234 15.060547 C 31.740234 13.961247 30.839586 13.060547 29.740234 13.060547 L 19.462891 13.060547 L 21.984375 10.539062 C 22.76247 9.7609625 22.76247 8.4851312 21.984375 7.7070312 C 21.595296 7.3180313 21.081849 7.125 20.568359 7.125 z M 20.568359 8.1171875 C 20.823556 8.1171875 21.078723 8.2155125 21.277344 8.4140625 C 21.674449 8.8111625 21.674449 9.4349313 21.277344 9.8320312 L 17.048828 14.060547 L 29.740234 14.060547 C 30.302883 14.060547 30.740234 14.497947 30.740234 15.060547 C 30.740234 15.623247 30.302883 16.060547 29.740234 16.060547 L 23.474609 16.060547 L 23.375 17.050781 C 23.83086 17.143781 24.162109 17.532497 24.162109 18.029297 C 24.162109 18.591897 23.724758 19.029297 23.162109 19.029297 L 22.505859 19.029297 L 22.40625 20.019531 C 22.864907 20.112531 23.224609 20.515747 23.224609 20.998047 C 23.224609 21.560747 22.787258 21.998047 22.224609 21.998047 L 21.255859 21.998047 L 21.255859 22.998047 C 21.818508 22.998047 22.255859 23.435447 22.255859 23.998047 C 22.255859 24.560747 21.818508 24.998047 21.255859 24.998047 L 14.023438 24.998047 C 12.654516 24.959047 10.893828 23.998047 8.8320312 23.998047 L 8.0292969 23.998047 L 8.0292969 15.998047 L 10.511719 15.998047 L 10.65625 15.748047 C 11.828361 13.717947 13.470934 12.674628 15.177734 11.736328 C 16.86567 10.808399 18.626491 10.001972 19.859375 8.4140625 C 20.057938 8.2155125 20.313163 8.1171875 20.568359 8.1171875 z M 3.0019531 15.003906 L 7.0292969 15.003906 L 7.0292969 24.998047 L 3.0019531 24.998047 L 3.0019531 15.003906 z " color="#000" font-family="sans-serif" font-weight="400" overflow="visible" style="line-height:normal;text-indent:0;text-align:start;text-decoration-line:none;text-decoration-style:solid;text-decoration-color:#000;text-transform:none;block-progression:tb;isolation:auto;mix-blend-mode:normal"/></svg>